<?xml version="1.0" encoding="UTF-8"?>
<svg xmlns="http://www.w3.org/2000/svg" xmlns:xlink="http://www.w3.org/1999/xlink" version="1.1" width="512" height="512" x="0" y="0" viewBox="0 0 32 32" style="enable-background:new 0 0 512 512" xml:space="preserve" class="">
  <g>
    <path d="M20.415 15.665a8 8 0 1 0-8.83 0A15.025 15.025 0 0 0 1 30a1 1 0 0 0 1 1h28a1 1 0 0 0 1-1 15.025 15.025 0 0 0-10.585-14.335zM10 9a6 6 0 1 1 6 6 6.006 6.006 0 0 1-6-6zM3.038 29a13 13 0 0 1 25.924 0z" fill="#434343" opacity="1" data-original="#000000" class=""/>
  </g>
</svg>
